{
   "accessors" : [
      {
         "bufferView" : 0,
         "componentType" : 5126,
         "count" : 4018,
         "max" : [ 2.110931634902954, 7.648165702819824, 2.110999822616577 ],
         "min" : [ -2.110931634902954, 0, -2.110862255096436 ],
         "type" : "VEC3"
      },
      {
         "bufferView" : 1,
         "componentType" : 5126,
         "count" : 4018,
         "type" : "VEC3"
      },
      {
         "bufferView" : 2,
         "componentType" : 5126,
         "count" : 4018,
         "type" : "VEC2"
      },
      {
         "bufferView" : 3,
         "componentType" : 5123,
         "count" : 6108,
         "type" : "SCALAR"
      },
      {
         "bufferView" : 6,
         "componentType" : 5126,
         "count" : 4,
         "max" : [ 10.04202651977539, 0, 10.04202651977539 ],
         "min" : [ -10.04202651977539, 0, -10.04202651977539 ],
         "type" : "VEC3"
      },
      {
         "bufferView" : 7,
         "componentType" : 5126,
         "count" : 4,
         "type" : "VEC3"
      },
      {
         "bufferView" : 8,
         "componentType" : 5126,
         "count" : 4,
         "type" : "VEC2"
      },
      {
         "bufferView" : 9,
         "componentType" : 5123,
         "count" : 6,
         "type" : "SCALAR"
      }
   ],
   "asset" : {
      "extras" : {
         "GOOGLE_processor_version" : 294144208
      },
      "generator" : "Khronos Blender glTF 2.0 I/O",
      "version" : "2.0"
   },
   "bufferViews" : [
      {
         "buffer" : 0,
         "byteLength" : 48216,
         "byteOffset" : 0
      },
      {
         "buffer" : 0,
         "byteLength" : 48216,
         "byteOffset" : 48216
      },
      {
         "buffer" : 0,
         "byteLength" : 32144,
         "byteOffset" : 96432
      },
      {
         "buffer" : 0,
         "byteLength" : 12216,
         "byteOffset" : 128576
      },
      {
         "buffer" : 0,
         "byteLength" : 1,
         "byteOffset" : 0
      },
      {
         "buffer" : 0,
         "byteLength" : 1,
         "byteOffset" : 0
      },
      {
         "buffer" : 0,
         "byteLength" : 48,
         "byteOffset" : 140796
      },
      {
         "buffer" : 0,
         "byteLength" : 48,
         "byteOffset" : 140844
      },
      {
         "buffer" : 0,
         "byteLength" : 32,
         "byteOffset" : 140892
      },
      {
         "buffer" : 0,
         "byteLength" : 12,
         "byteOffset" : 140924
      }
   ],
   "buffers" : [
      {
         "byteLength" : 140936,
         "uri" : "wooden watch tower_Packed_Blender 2.8.bin"
      }
   ],
   "cameras" : [
      {
         "perspective" : {
            "yfov" : 0.7853981633974483,
            "znear" : 0.1000000014901161
         },
         "type" : "perspective"
      }
   ],
   "extensions" : {
      "KHR_lights_punctual" : {
         "lights" : [
            {
               "color" : [ 1, 0.9333333333333333, 0.8666666666666667 ],
               "intensity" : 0.25,
               "name" : "headLight",
               "type" : "directional"
            },
            {
               "color" : [ 1, 0.9333333333333333, 0.8666666666666667 ],
               "intensity" : 0.324999988079071,
               "name" : "keyLight",
               "type" : "directional"
            }
         ]
      }
   },
   "extensionsUsed" : [ "GOOGLE_backgrounds", "GOOGLE_camera_settings", "KHR_lights_punctual" ],
   "extras" : {
      "GOOGLE_initial_camera_motion" : {
         "motionPath" : "FULL_ROTATION"
      },
      "GOOGLE_lighting_rig" : {
         "disableShadows" : false
      }
   },
   "images" : [
      {
         "uri" : "image0.png"
      },
      {
         "uri" : "image1.png"
      }
   ],
   "materials" : [
      {
         "doubleSided" : true,
         "name" : "watchtower",
         "normalTexture" : {
            "index" : 0,
            "texCoord" : 0
         },
         "pbrMetallicRoughness" : {
            "baseColorTexture" : {
               "index" : 1,
               "texCoord" : 0
            },
            "metallicFactor" : 0,
            "roughnessFactor" : 0.5476190447807312
         }
      },
      {
         "name" : "Material.001",
         "pbrMetallicRoughness" : {
            "baseColorFactor" : [ 0.08186909556388855, 0.08186909556388855, 0.08186909556388855, 1 ],
            "metallicFactor" : 0,
            "roughnessFactor" : 0.5
         }
      }
   ],
   "meshes" : [
      {
         "name" : "watchtower",
         "primitives" : [
            {
               "attributes" : {
                  "NORMAL" : 1,
                  "POSITION" : 0,
                  "TEXCOORD_0" : 2
               },
               "indices" : 3,
               "material" : 0
            }
         ]
      },
      {
         "name" : "Plane",
         "primitives" : [
            {
               "attributes" : {
                  "NORMAL" : 5,
                  "POSITION" : 4,
                  "TEXCOORD_0" : 6
               },
               "indices" : 7,
               "material" : 1
            }
         ]
      }
   ],
   "nodes" : [
      {
         "mesh" : 0,
         "name" : "watchtowerHigh"
      },
      {
         "mesh" : 1,
         "name" : "Plane",
         "scale" : [ 1.211215734481812, 1.211215734481812, 1.211215734481812 ],
         "translation" : [ -1.416914343833923, 0, 0 ]
      },
      {
         "name" : "Spot",
         "rotation" : [
            0.08631724864244461,
            0.05761658400297165,
            -0.1378422826528549,
            0.9850022196769714
         ],
         "translation" : [ 4.216198444366455, 19.68030548095703, 3.563807487487793 ]
      },
      {
         "children" : [ 4 ]
      },
      {
         "children" : [ 5 ],
         "extras" : {
            "isTransformNode" : 1
         },
         "translation" : [ -0.1020998144425835, 4.281463181457286, 0.06081530263417799 ]
      },
      {
         "children" : [ 0, 1, 2 ],
         "translation" : [ 0.1020998144425835, -4.281463181457286, -0.06081530263417799 ]
      },
      {
         "camera" : 0,
         "children" : [ 7 ],
         "rotation" : [
            0.07436077696924355,
            0.9100853749817239,
            0.1867311069250946,
            -0.3624176855500214
         ],
         "translation" : [ -7.987839314903641, 8.716063913973322, -8.674832060770559 ]
      },
      {
         "extensions" : {
            "KHR_lights_punctual" : {
               "light" : 0
            }
         },
         "extras" : {
            "isHeadLight" : 1
         },
         "name" : "headLightNode",
         "translation" : [ -20.42223963640842, 10.21111981820421, 10.21111981820421 ]
      },
      {
         "extensions" : {
            "KHR_lights_punctual" : {
               "light" : 1
            }
         },
         "extras" : {
            "isKeyLight" : 1
         },
         "name" : "keyLightNode",
         "rotation" : [ -0.7505326882858236, -0.3752663441429118, 0, 0.5439447166468927 ],
         "scale" : [ 0, 0, 20.6264620327725 ],
         "translation" : [ -20.68531810546572, 44.71724155369888, -20.70521682618939 ]
      }
   ],
   "scene" : 0,
   "scenes" : [
      {
         "extensions" : {
            "GOOGLE_backgrounds" : {
               "color" : [ 0.8784313725490196, 0.8784313725490196, 0.8784313725490196 ]
            },
            "GOOGLE_camera_settings" : {
               "pivot" : [ -0.05099663367275564, 3.769983474616842, -0.2898485320575155 ]
            }
         },
         "extras" : {
            "GOOGLE_camera_index" : {
               "cameraIndex" : 0,
               "nodeIndex" : 6
            },
            "GOOGLE_geometry_data" : {
               "stats" : {
                  "centroid" : [ -0.05885607269321661, 3.464317488153884, -0.07875479341689302 ],
                  "radius" : 20.42223963640842,
                  "stdev" : 2.929635296600282
               },
               "visualCenterPoint" : [ -0.1020998144425835, 4.281463181457286, 0.06081530263417799 ]
            },
            "GOOGLE_hemi_light" : {
               "groundColor" : [ 0.8784313725490196, 0.8784313725490196, 0.8784313725490196 ]
            }
         },
         "name" : "Scene",
         "nodes" : [ 3, 6, 8 ]
      }
   ],
   "textures" : [
      {
         "source" : 0
      },
      {
         "source" : 1
      }
   ]
}
